<svg width="40" height="27" viewBox="0 0 40 27" fill="none" xmlns="http://www.w3.org/2000/svg">
<path d="M28 19.0717C25.1034 18.9282 22.197 19.9667 20.2561 20.8992C18.4329 20.0244 15.7885 19.0556 13.0475 19.0556C10.8922 19.0556 8.52105 19.3669 6 19.9828L7.62558 6.15904C8.80553 5.69481 11.1066 4.89917 12.9662 4.89917C15.7339 4.89917 18.4371 6.62194 18.4637 6.6367L20.2505 7.80533L22.0358 6.64743C22.0624 6.63133 24.079 5.35804 26.4123 5.00382" stroke="#003057"/>
<path fill-rule="evenodd" clip-rule="evenodd" d="M36.4671 3.40026C36.4671 3.40026 31.7393 0.89917 27.6858 0.89917C23.6311 0.89917 20 3.40026 20 3.40026C20 3.40026 16.3689 0.89917 12.3142 0.89917C8.26074 0.89917 3.53288 3.40026 3.53288 3.40026L1 25.8992C1 25.8992 6.74019 23.3981 12.4 23.3981C16.1142 23.3981 20 25.8992 20 25.8992C20 25.8992 23.8858 23.3981 27.6 23.3981C33.2612 23.3981 39 25.8992 39 25.8992L36.4671 3.40026Z" stroke="#003057" stroke-width="1.2"/>
</svg>