<svg width="33" height="33" viewBox="0 0 33 33" fill="none" xmlns="http://www.w3.org/2000/svg">
<path fill-rule="evenodd" clip-rule="evenodd" d="M1 33H32V0H1V33Z" fill="#D8D8D8" fill-opacity="0.01"/>
<mask id="mask0" mask-type="alpha" maskUnits="userSpaceOnUse" x="7" y="1" width="19" height="24">
<path fill-rule="evenodd" clip-rule="evenodd" d="M14.354 3.2548C13.8552 3.44002 13.3647 3.61451 12.8948 3.77423V3.77423C10.3951 3.85342 8.72727 5.81035 8.72727 8.69877V8.69877V10.8463C7.72131 11.1899 7 12.1187 7 13.2072V13.2072V14.8783C7 16.4594 8.09855 18.2606 9.62822 18.7546V18.7546C9.99578 22.102 12.928 24.8992 16.2388 24.8992V24.8992H16.4986C19.8095 24.8992 22.7403 22.102 23.1106 18.7586V18.7586C24.7149 18.2539 26 16.3936 26 14.8783V14.8783V13.2072C26 12.1643 24.9553 11.41 24.2727 11.0302V11.0302V8.19679C24.2727 4.01985 22.7555 1.89917 19.768 1.89917V1.89917C18.067 1.89917 16.178 2.58906 14.354 3.2548V3.2548ZM11.3154 18.0459C11.3154 17.5882 10.9285 17.2097 10.4532 17.2097V17.2097C9.58124 17.2097 8.72589 15.8755 8.72589 14.8743V14.8743V13.2046C8.72589 12.7455 9.1128 12.3697 9.58815 12.3697V12.3697C10.0663 12.3697 10.4532 11.9939 10.4532 11.5348V11.5348V8.69475C10.4532 7.12437 11.133 5.43856 13.0427 5.43856V5.43856C13.1394 5.43856 13.232 5.42648 13.3218 5.39561V5.39561C13.8469 5.21978 14.3983 5.01845 14.9607 4.81309V4.81309C16.6409 4.20508 18.3793 3.57021 19.7639 3.57021V3.57021C20.5971 3.57021 22.5441 3.57021 22.5441 8.19276V8.19276V11.5348C22.5441 11.8637 22.7431 12.163 23.054 12.2959V12.2959C23.6081 12.5361 24.2354 13.0072 24.2713 13.2046V13.2046V14.8743C24.2713 15.9024 23.159 17.2097 22.2843 17.2097V17.2097C21.8103 17.2097 21.4207 17.5882 21.4207 18.0459V18.0459C21.4207 20.8081 19.1199 23.2268 16.4986 23.2268V23.2268H16.2388C13.6161 23.2268 11.3154 20.8028 11.3154 18.0459V18.0459Z" fill="white"/>
</mask>
<g mask="url(#mask0)">
<path fill-rule="evenodd" clip-rule="evenodd" d="M1 30.8992H33V-5.10083H1V30.8992Z" fill="#003057"/>
</g>
<mask id="mask1" mask-type="alpha" maskUnits="userSpaceOnUse" x="1" y="23" width="31" height="10">
<path fill-rule="evenodd" clip-rule="evenodd" d="M21.6131 24.6501C21.6131 25.0623 21.9992 25.3986 22.4719 25.3986V25.3986C26.7 25.3986 29.8468 27.8803 30.2398 31.3986V31.3986H2.75749C3.15049 27.8803 6.29583 25.3986 10.5267 25.3986V25.3986C11.0022 25.3986 11.3869 25.0623 11.3869 24.6501V24.6501C11.3869 24.2354 11.0022 23.8992 10.5267 23.8992V23.8992C5.09623 23.8992 1 27.4452 1 32.1483V32.1483C1 32.5629 1.38475 32.8992 1.85745 32.8992V32.8992H31.1384C31.6125 32.8992 31.9973 32.5629 32 32.1483V32.1483C32 27.4452 27.9024 23.8992 22.4719 23.8992V23.8992C21.9992 23.8992 21.6131 24.2354 21.6131 24.6501V24.6501Z" fill="white"/>
</mask>
<g mask="url(#mask1)">
<path fill-rule="evenodd" clip-rule="evenodd" d="M-6 38.8992H39V16.8992H-6V38.8992Z" fill="#003057"/>
</g>
</svg>