<svg width="42" height="28" viewBox="0 0 42 28" fill="none" xmlns="http://www.w3.org/2000/svg">
<path fill-rule="evenodd" clip-rule="evenodd" d="M0 27H41V0H0V27Z" fill="#D8D8D8" fill-opacity="0.01"/>
<mask id="mask0" mask-type="alpha" maskUnits="userSpaceOnUse" x="0" y="0" width="30" height="26">
<path fill-rule="evenodd" clip-rule="evenodd" d="M0 11.4654C0 15.0497 2.58399 18.3812 6.80631 20.3143V20.3143C5.96618 22.0893 4.777 23.7089 4.10868 24.384V24.384C3.85705 24.6384 3.78129 25.0179 3.91928 25.3506V25.3506C4.05592 25.6819 4.37655 25.8992 4.73371 25.8992V25.8992C8.13078 25.8992 11.0922 24.5765 13.5409 21.9711V21.9711C14.0212 22.004 14.5055 22.0274 14.9993 22.0274V22.0274C23.2708 22.0274 30 17.2881 30 11.4654V11.4654C30 5.63986 23.2722 0.89917 14.9993 0.89917V0.89917C6.7292 0.89917 0 5.63986 0 11.4654V11.4654ZM8.79233 20.1837C8.88027 19.9664 8.87621 19.7189 8.78286 19.5031V19.5031C8.69222 19.2845 8.51499 19.114 8.29583 19.026V19.026C4.26832 17.4311 1.7655 14.5355 1.7655 11.4654V11.4654C1.7655 6.61742 7.70192 2.67418 14.9993 2.67418V2.67418C22.2981 2.67418 28.2359 6.61742 28.2331 11.4695V11.4695C28.2331 16.3147 22.2967 20.2579 14.9993 20.2579V20.2579C14.4054 20.2579 13.8264 20.2235 13.2555 20.1727V20.1727C12.9768 20.152 12.7048 20.2579 12.5209 20.4655V20.4655C10.8568 22.3464 8.9168 23.5041 6.73326 23.9358V23.9358C7.49087 22.8496 8.26742 21.4981 8.79233 20.1837V20.1837Z" fill="white"/>
</mask>
<g mask="url(#mask0)">
<path fill-rule="evenodd" clip-rule="evenodd" d="M-6 32.8992H37V-6.10083H-6V32.8992Z" fill="#003057"/>
</g>
<mask id="mask1" mask-type="alpha" maskUnits="userSpaceOnUse" x="18" y="3" width="23" height="24">
<path fill-rule="evenodd" clip-rule="evenodd" d="M26.3736 4.77714C26.3736 5.26036 26.7626 5.65646 27.2438 5.65646V5.65646C33.8686 5.65646 39.2556 9.23231 39.2556 13.6262V13.6262C39.2556 16.4058 36.9885 19.0329 33.3366 20.4703V20.4703C33.1227 20.5601 32.9476 20.7303 32.8567 20.9453V20.9453C32.7658 21.159 32.7618 21.4027 32.8487 21.6191V21.6191C33.3032 22.772 33.9729 23.9536 34.6372 24.9282V24.9282C32.723 24.513 31.02 23.469 29.5537 21.8124V21.8124C29.3719 21.6069 29.0952 21.4953 28.8278 21.5238V21.5238C25.486 21.8179 21.913 21.1264 19.3117 19.5978V19.5978C18.896 19.3527 18.3613 19.4902 18.1194 19.9136V19.9136C17.8761 20.3369 18.0164 20.8718 18.4335 21.1155V21.1155C21.2286 22.7598 24.9861 23.5602 28.5485 23.307V23.307C30.7928 25.6904 33.5037 26.8992 36.6129 26.8992V26.8992C36.9685 26.8992 37.2839 26.68 37.4203 26.3492V26.3492C37.5579 26.0171 37.4818 25.6442 37.2318 25.3923V25.3923C36.6503 24.8057 35.5729 23.3356 34.811 21.7512V21.7512C38.6487 19.9626 41 16.9149 41 13.6262V13.6262C41 8.25769 34.8297 3.89917 27.2438 3.89917V3.89917C26.7626 3.89917 26.3736 4.29528 26.3736 4.77714V4.77714Z" fill="white"/>
</mask>
<g mask="url(#mask1)">
<path fill-rule="evenodd" clip-rule="evenodd" d="M11 33.8992H47V-3.10083H11V33.8992Z" fill="#003057"/>
</g>
</svg>