<svg width="41" height="38" viewBox="0 0 41 38" fill="none" xmlns="http://www.w3.org/2000/svg">
<path fill-rule="evenodd" clip-rule="evenodd" d="M0 37H41V1H0V37Z" fill="#D8D8D8" fill-opacity="0.01"/>
<mask id="mask0" mask-type="alpha" maskUnits="userSpaceOnUse" x="1" y="0" width="40" height="37">
<path fill-rule="evenodd" clip-rule="evenodd" d="M37.0242 0.923379C34.5509 1.17488 31.7526 3.46531 29.3622 5.99515V5.99515L26.4579 3.12236H21.601L1 23.4995L14.5468 36.8992L35.1464 16.522V11.7165L33.1844 9.77577C35.727 8.71865 40.4371 6.47126 40.9483 4.13778V4.13778C41.1142 3.38327 40.8776 2.64625 40.2848 2.05985V2.05985C39.5125 1.29593 38.5511 0.89917 37.4824 0.89917V0.89917C37.3315 0.89917 37.1792 0.90724 37.0242 0.923379V0.923379ZM30.7274 7.34547C32.9247 5.00662 35.3313 2.99997 37.2213 2.80764V2.80764C37.9094 2.74039 38.4505 2.92599 38.9305 3.39941V3.39941C39.11 3.57829 39.0909 3.66571 39.076 3.73565V3.73565C38.8163 4.92054 35.1627 6.97292 31.7159 8.32189V8.32189L30.7274 7.34547ZM3.70854 23.4995L22.3937 5.01737H25.6652L28.0841 7.41002C27.2982 8.31651 26.5843 9.20955 25.9684 10.0125V10.0125C25.5469 9.85243 25.0914 9.75425 24.6114 9.75425V9.75425H24.6087C22.497 9.7556 20.7797 11.4556 20.7797 13.5443V13.5443C20.7797 15.6343 22.497 17.3343 24.6114 17.3343V17.3343C26.723 17.3343 28.4417 15.6357 28.443 13.547V13.547C28.4417 12.6203 28.0922 11.7838 27.5334 11.1247V11.1247C28.1154 10.3675 28.7694 9.56462 29.456 8.76707V8.76707L33.2333 12.502V15.7379H33.2319L14.5482 34.2187L3.70854 23.4995ZM22.6942 13.5443C22.6942 12.4993 23.5522 11.6506 24.61 11.6506V11.6506C24.6576 11.6506 24.7025 11.66 24.7487 11.6627V11.6627C24.2755 12.3285 23.9451 12.8194 23.8092 13.0251V13.0251C23.5195 13.4649 23.6433 14.05 24.0865 14.3378V14.3378C24.2483 14.4427 24.4292 14.4925 24.6087 14.4925V14.4925C24.9228 14.4925 25.2287 14.3405 25.4123 14.0634V14.0634C25.6611 13.6869 25.9725 13.235 26.3355 12.7319V12.7319C26.4538 12.9794 26.5272 13.2511 26.5272 13.5443V13.5443C26.5259 14.592 25.6679 15.4393 24.61 15.4393V15.4393C23.5522 15.4393 22.6942 14.592 22.6942 13.5443V13.5443Z" fill="white"/>
</mask>
<g mask="url(#mask0)">
<path fill-rule="evenodd" clip-rule="evenodd" d="M-6 43.8992H48V-6.10083H-6V43.8992Z" fill="#003057"/>
</g>
</svg>