<svg width="42" height="39" viewBox="0 0 42 39" fill="none" xmlns="http://www.w3.org/2000/svg">
<path fill-rule="evenodd" clip-rule="evenodd" d="M0 39H41V1H0V39Z" fill="#D8D8D8" fill-opacity="0.01"/>
<mask id="mask0" mask-type="alpha" maskUnits="userSpaceOnUse" x="11" y="7" width="18" height="24">
<path fill-rule="evenodd" clip-rule="evenodd" d="M17.967 9.25345C17.4944 9.44002 17.0297 9.61451 16.5846 9.77289V9.77289C14.2177 9.85208 12.6364 11.8104 12.6364 14.6988V14.6988V16.8463C11.6847 17.1899 11 18.1187 11 19.2072V19.2072V20.8783C11 22.4594 12.0407 24.2606 13.4912 24.7546V24.7546C13.8368 28.102 16.616 30.8992 19.7526 30.8992V30.8992H19.9974C23.1353 30.8992 25.9119 28.102 26.2614 24.7586V24.7586C27.7825 24.2539 29 22.3936 29 20.8783V20.8783V19.2072C29 18.1643 28.0116 17.41 27.3636 17.0302V17.0302V14.1968C27.3636 10.0199 25.9263 7.89917 23.096 7.89917V7.89917C21.4845 7.89917 19.6963 8.58906 17.967 9.25345V9.25345ZM15.0896 24.0445C15.0896 23.5868 14.7231 23.2097 14.2701 23.2097V23.2097C13.4441 23.2097 12.6337 21.8755 12.6337 20.8743V20.8743V19.2046C12.6337 18.7455 13.0016 18.3697 13.4532 18.3697V18.3697C13.9036 18.3697 14.2701 17.9939 14.2701 17.5335V17.5335V14.6947C14.2701 13.1244 14.9168 11.4372 16.726 11.4372V11.4372C16.815 11.4372 16.904 11.4251 16.9891 11.3956V11.3956C17.4865 11.2184 18.0089 11.0171 18.5417 10.8118V10.8118C20.1348 10.2051 21.7804 9.57021 23.0934 9.57021V9.57021C23.8815 9.57021 25.726 9.57021 25.726 14.1928V14.1928V17.5335C25.726 17.8637 25.9158 18.1617 26.2103 18.2959V18.2959C26.7327 18.5361 27.327 19.0072 27.361 19.2046V19.2046V20.8743C27.361 21.901 26.3085 23.2097 25.4799 23.2097V23.2097C25.0295 23.2097 24.6617 23.5868 24.6617 24.0445V24.0445C24.6617 26.8068 22.482 29.2254 19.9974 29.2254V29.2254H19.7526C17.2692 29.2254 15.0896 26.8028 15.0896 24.0445V24.0445Z" fill="white"/>
</mask>
<g mask="url(#mask0)">
<path fill-rule="evenodd" clip-rule="evenodd" d="M4 36.8992H36V0.89917H4V36.8992Z" fill="#003057"/>
</g>
<mask id="mask1" mask-type="alpha" maskUnits="userSpaceOnUse" x="5" y="28" width="31" height="11">
<path fill-rule="evenodd" clip-rule="evenodd" d="M25.6135 29.7336C25.6135 30.1917 25.9996 30.5654 26.4723 30.5654V30.5654C30.7003 30.5654 33.8469 33.3232 34.2412 37.2329V37.2329H6.76016C7.15039 33.3232 10.2983 30.5654 14.5291 30.5654V30.5654C15.0017 30.5654 15.3865 30.1917 15.3865 29.7336V29.7336C15.3865 29.2729 15.0017 28.8992 14.5291 28.8992V28.8992C9.09742 28.8992 5 32.8397 5 38.0661V38.0661C5 38.5268 5.38611 38.8992 5.86016 38.8992V38.8992H35.1385C35.6139 38.8992 35.9986 38.5268 36 38.0661V38.0661C36 32.8397 31.9039 28.8992 26.4723 28.8992V28.8992C25.9996 28.8992 25.6135 29.2729 25.6135 29.7336V29.7336Z" fill="white"/>
</mask>
<g mask="url(#mask1)">
<path fill-rule="evenodd" clip-rule="evenodd" d="M-2 45.8992H43V21.8992H-2V45.8992Z" fill="#003057"/>
</g>
<mask id="mask2" mask-type="alpha" maskUnits="userSpaceOnUse" x="0" y="11" width="6" height="7">
<path fill-rule="evenodd" clip-rule="evenodd" d="M0 17.041C0 17.5149 0.384 17.8992 0.858514 17.8992V17.8992C1.33166 17.8992 1.71566 17.5149 1.71566 17.041V17.041C1.71566 15.1499 3.25303 13.6127 5.14423 13.6127V13.6127C5.616 13.6127 6 13.2284 6 12.7573V12.7573C6 12.2835 5.616 11.8992 5.14423 11.8992V11.8992C2.30811 11.8992 0 14.2063 0 17.041V17.041Z" fill="white"/>
</mask>
<g mask="url(#mask2)">
<path fill-rule="evenodd" clip-rule="evenodd" d="M-7 24.8992H13V5.89917H-7V24.8992Z" fill="#003057"/>
</g>
<mask id="mask3" mask-type="alpha" maskUnits="userSpaceOnUse" x="35" y="11" width="6" height="7">
<path fill-rule="evenodd" clip-rule="evenodd" d="M35 12.7573C35 13.2284 35.3867 13.6127 35.8583 13.6127V13.6127C37.7491 13.6127 39.2861 15.1499 39.2861 17.041V17.041C39.2861 17.5149 39.6714 17.8992 40.1417 17.8992V17.8992C40.6133 17.8992 41 17.5149 41 17.041V17.041C41 14.2063 38.6924 11.8992 35.8583 11.8992V11.8992C35.3867 11.8992 35 12.2835 35 12.7573V12.7573Z" fill="white"/>
</mask>
<g mask="url(#mask3)">
<path fill-rule="evenodd" clip-rule="evenodd" d="M29 24.8992H48V5.89917H29V24.8992Z" fill="#003057"/>
</g>
<mask id="mask4" mask-type="alpha" maskUnits="userSpaceOnUse" x="4" y="0" width="9" height="12">
<path fill-rule="evenodd" clip-rule="evenodd" d="M8.50072 0.89917C6.02 0.89917 4 2.66074 4 4.82891V4.82891C4 6.58922 5.5967 11.8992 8.50072 11.8992V11.8992C11.4033 11.8992 13 6.58922 13 4.82891V4.82891C13 2.66074 10.9814 0.89917 8.50072 0.89917ZM5.79971 4.82891C5.79971 3.52952 7.012 2.47132 8.50072 2.47132V2.47132C9.988 2.47132 11.2003 3.52952 11.2003 4.82891V4.82891C11.2003 6.67509 9.55751 10.3283 8.50072 10.3283V10.3283C7.44249 10.3283 5.79971 6.67509 5.79971 4.82891V4.82891Z" fill="white"/>
</mask>
<g mask="url(#mask4)">
<path fill-rule="evenodd" clip-rule="evenodd" d="M-3 18.8992H20V-5.10083H-3V18.8992Z" fill="#003057"/>
</g>
<mask id="mask5" mask-type="alpha" maskUnits="userSpaceOnUse" x="28" y="0" width="9" height="12">
<path fill-rule="evenodd" clip-rule="evenodd" d="M32.5007 0.89917C30.0192 0.89917 28 2.66074 28 4.82891V4.82891C28 6.58922 29.5972 11.8992 32.5007 11.8992V11.8992C35.4042 11.8992 37 6.58922 37 4.82891V4.82891C37 2.66074 34.9808 0.89917 32.5007 0.89917ZM29.8003 4.82891C29.8003 3.52952 31.0115 2.47132 32.5007 2.47132V2.47132C33.9899 2.47132 35.1997 3.52952 35.1997 4.82891V4.82891C35.1997 6.67509 33.5593 10.3283 32.5007 10.3283V10.3283C31.4407 10.3283 29.8003 6.67509 29.8003 4.82891V4.82891Z" fill="white"/>
</mask>
<g mask="url(#mask5)">
<path fill-rule="evenodd" clip-rule="evenodd" d="M21 18.8992H43V-5.10083H21V18.8992Z" fill="#003057"/>
</g>
</svg>