<svg width="31" height="36" viewBox="0 0 31 36" fill="none" xmlns="http://www.w3.org/2000/svg">
<path fill-rule="evenodd" clip-rule="evenodd" d="M0 36H30V0H0V36Z" fill="#D8D8D8" fill-opacity="0.01"/>
<path d="M14 8.89917L24 34.8992" stroke="#003057" stroke-linecap="round" stroke-linejoin="round"/>
<path d="M5 34.8992L15 8.89917" stroke="#003057" stroke-linecap="round" stroke-linejoin="round"/>
<mask id="mask0" mask-type="alpha" maskUnits="userSpaceOnUse" x="12" y="5" width="6" height="7">
<path fill-rule="evenodd" clip-rule="evenodd" d="M12 8.89568C12 10.5564 13.343 11.8992 14.9986 11.8992V11.8992C16.657 11.8992 18 10.5564 18 8.89568V8.89568C18 7.24195 16.657 5.89917 14.9986 5.89917V5.89917C13.343 5.89917 12 7.24195 12 8.89568V8.89568Z" fill="white"/>
</mask>
<g mask="url(#mask0)">
<path fill-rule="evenodd" clip-rule="evenodd" d="M5 18.8992H25V-0.10083H5V18.8992Z" fill="#003057"/>
</g>
<path d="M22 3.89917C23.2502 5.38716 24 7.30788 24 9.39851C24 11.4958 23.2502 13.4112 22.0039 14.8992" stroke="#003057" stroke-width="1.08" stroke-linecap="round" stroke-linejoin="round"/>
<path d="M27 0.89917C28.8731 3.07325 30 5.87628 30 8.93661C30 11.9602 28.8978 14.7333 27.0644 16.8992" stroke="#003057" stroke-width="1.08" stroke-linecap="round" stroke-linejoin="round"/>
<path d="M8 3.89917C6.74984 5.38716 6 7.30788 6 9.39851C6 11.4958 6.74984 13.4112 7.9961 14.8992" stroke="#003057" stroke-width="1.08" stroke-linecap="round" stroke-linejoin="round"/>
<path d="M4 0.89917C2.12688 3.07325 1 5.87628 1 8.93661C1 11.9602 2.10224 14.7333 3.93565 16.8992" stroke="#003057" stroke-width="1.08" stroke-linecap="round" stroke-linejoin="round"/>
<path d="M7 32L21 28.1259L10.0448 24.0187L18.0032 21" stroke="#003057" stroke-linecap="round" stroke-linejoin="round"/>
</svg>