<svg width="42" height="28" viewBox="0 0 42 28" fill="none" xmlns="http://www.w3.org/2000/svg">
<path fill-rule="evenodd" clip-rule="evenodd" d="M0 28H41V1H0V28Z" fill="#D8D8D8" fill-opacity="0.01"/>
<mask id="mask0" mask-type="alpha" maskUnits="userSpaceOnUse" x="0" y="0" width="41" height="27">
<path fill-rule="evenodd" clip-rule="evenodd" d="M6.9318 0.89917C6.74593 0.904618 6.5628 0.984974 6.4316 1.13888V1.13888C6.18149 1.42898 6.21156 1.87025 6.49993 2.12358V2.12358L12.2332 7.16832C12.2728 7.20509 12.3193 7.23641 12.3671 7.26229V7.26229C12.5475 7.35627 12.7388 7.42164 12.9384 7.45297V7.45297L14.7246 7.74034L12.9206 10.1183C12.6117 10.5228 12.4792 11.0254 12.5461 11.5321V11.5321C12.6145 12.0401 12.8741 12.4895 13.2773 12.7987V12.7987C13.854 13.2413 14.6426 13.3067 15.2836 12.9676V12.9676L20.3266 10.2995C20.4865 10.2137 20.6806 10.2232 20.8323 10.3226V10.3226L31.681 17.4403C31.9215 17.5983 32.0855 17.8407 32.1457 18.124V18.124C32.2031 18.4087 32.1484 18.6974 31.9912 18.9398V18.9398C31.6769 19.4206 31.0469 19.5677 30.5562 19.2708V19.2708L29.9494 18.903C29.9481 18.903 29.3823 18.5598 29.3823 18.5598V18.5598L24.6891 15.716C24.3611 15.5186 23.9388 15.6248 23.7433 15.9557V15.9557C23.5479 16.2867 23.6545 16.7157 23.9811 16.9132V16.9132L29.2415 20.1002C29.4 20.1969 29.5107 20.3522 29.5517 20.5347V20.5347C29.5927 20.7186 29.5599 20.9051 29.4574 21.0631V21.0631C29.1034 21.6079 28.3832 21.7904 27.8174 21.4785V21.4785L23.2308 18.9466C22.896 18.7628 22.4778 18.8881 22.2946 19.2258V19.2258C22.1129 19.565 22.2359 19.9885 22.5707 20.1738V20.1738L25.8808 22.0002L26.6981 22.5041C26.8498 22.5981 26.9537 22.7492 26.9878 22.9277V22.9277C27.022 23.1061 26.9824 23.2845 26.8744 23.4302V23.4302C26.5327 23.9682 25.9041 24.1412 25.3847 23.8742V23.8742L21.8341 22.0492C21.4951 21.8749 21.0783 22.0111 20.9061 22.3556V22.3556C20.7339 22.6989 20.8692 23.1197 21.2095 23.2954V23.2954L24.1643 24.8126C23.5602 25.194 22.8386 25.3547 22.1115 25.2417V25.2417L19.4424 24.8276L19.631 24.5525C20.2323 23.6808 20.0697 22.4714 19.2661 21.7904V21.7904C19.001 21.5711 18.703 21.4377 18.39 21.3696V21.3696C18.636 20.5129 18.3764 19.5527 17.6602 18.9671V18.9671C17.283 18.6552 16.8129 18.4863 16.3318 18.4686V18.4686C16.3414 18.2834 16.3346 18.0981 16.2977 17.9129V17.9129C16.1788 17.3095 15.833 16.792 15.3232 16.4569V16.4569C14.3187 15.7937 12.9575 16.0661 12.2701 17.0562V17.0562C12.0951 16.7879 11.8641 16.555 11.5771 16.3766V16.3766C10.7011 15.8291 9.58726 15.9734 8.87385 16.6749V16.6749L6.35779 13.3176C6.27716 13.2087 6.16646 13.1269 6.04073 13.082V13.082L0.921142 11.2338C0.561705 11.1044 0.168102 11.2951 0.0396337 11.6574V11.6574C0.0150335 11.7282 0.00136668 11.8004 0 11.8726V11.8726V11.9093C0.0068334 12.1885 0.181768 12.45 0.457838 12.5495V12.5495L5.38335 14.3268L8.01694 17.8421L7.28714 18.899C6.59286 19.9041 6.83067 21.3001 7.81604 22.0097V22.0097C8.22468 22.3052 8.65655 22.4455 9.10072 22.451V22.451C9.10072 23.1674 9.43009 23.8742 10.0492 24.3155V24.3155C10.4305 24.5879 10.876 24.7282 11.3325 24.7282V24.7282C11.4678 24.7282 11.6031 24.7159 11.7384 24.6928V24.6928C11.8628 24.6683 11.9817 24.6315 12.0979 24.5879V24.5879C12.2892 25.0905 12.6418 25.5168 13.1174 25.7755V25.7755C13.4632 25.9621 13.824 26.0493 14.1793 26.0493V26.0493C14.521 26.0493 14.8558 25.9662 15.1606 25.8164V25.8164C15.382 26.2318 15.7346 26.5614 16.1747 26.7466V26.7466C16.4248 26.8501 16.6858 26.8992 16.9441 26.8992V26.8992C17.5618 26.8992 18.1645 26.6118 18.5554 26.1024V26.1024L21.9024 26.62C22.1293 26.6554 22.3561 26.6731 22.5789 26.6731V26.6731C23.7338 26.6731 24.8339 26.2127 25.6635 25.3833V25.3833C25.7414 25.3915 25.8207 25.3969 25.8986 25.3969V25.3969C26.7213 25.3969 27.5181 24.9856 27.9964 24.2433V24.2433C28.2506 23.8865 28.3777 23.4561 28.3723 23.023V23.023C29.2647 23.0244 30.1107 22.5981 30.6095 21.8299V21.8299C30.8104 21.5194 30.9157 21.1694 30.9348 20.8098V20.8098C30.9908 20.8139 31.0482 20.8207 31.1029 20.8207V20.8207C31.8983 20.8207 32.6732 20.4271 33.1434 19.708V19.708C33.5028 19.1523 33.6285 18.4904 33.4946 17.8393V17.8393C33.4755 17.7522 33.4427 17.6705 33.4153 17.586V17.586L36.668 14.4739C36.7131 14.4317 36.7391 14.3786 36.7719 14.3282V14.3282C37.0644 14.3963 37.3172 14.4235 37.5687 14.4235V14.4235C38.2192 14.4235 38.8561 14.2369 39.4178 13.8719V13.8719C41.0045 12.8423 41.4774 10.6931 40.4715 9.0778V9.0778L36.8006 3.19273C36.3072 2.40278 35.5405 1.85527 34.6385 1.65234V1.65234C33.7365 1.44941 32.8113 1.6142 32.035 2.11949V2.11949C31.0318 2.76915 30.4756 3.8669 30.4537 4.99325V4.99325C30.4373 4.9987 28.9599 5.59797 28.9599 5.59797V5.59797C28.8656 5.6361 28.7645 5.64427 28.6675 5.62384V5.62384L25.7072 4.99461C24.0003 4.63233 22.2659 4.61326 20.5508 4.93332V4.93332L17.7668 5.45904C17.0042 5.60205 16.3059 5.96297 15.7469 6.49006V6.49006L13.1557 6.07329C13.1229 6.06921 7.40331 1.07078 7.40331 1.07078V1.07078C7.27894 0.959097 7.1245 0.903256 6.97143 0.89917V0.89917H6.9318ZM37.1136 12.9771C36.5724 12.8545 36.1118 12.5277 35.8166 12.0537V12.0537L32.147 6.16863C31.5443 5.20163 31.8272 3.91185 32.7771 3.29487V3.29487C33.1147 3.07696 33.4973 2.96392 33.8868 2.96392V2.96392C34.0372 2.96392 34.1889 2.98162 34.3392 3.01431V3.01431C34.879 3.13689 35.3396 3.46376 35.6348 3.93909V3.93909L39.3057 9.82279C39.9084 10.7912 39.6255 12.0796 38.6743 12.6966V12.6966C38.3381 12.9158 37.9554 13.0275 37.5659 13.0275V13.0275C37.4156 13.0275 37.2639 13.0112 37.1136 12.9771V12.9771ZM14.1082 11.686C14.0003 11.6015 13.9306 11.4817 13.9128 11.3468V11.3468C13.895 11.2106 13.9306 11.0758 14.0139 10.9682V10.9682L16.3865 7.84249C16.7883 7.31132 17.3678 6.95312 18.0183 6.83055V6.83055L20.8022 6.30619C22.3397 6.01745 23.8937 6.03652 25.4243 6.36067V6.36067L28.3846 6.99126C28.7508 7.06753 29.1267 7.03484 29.4752 6.8932V6.8932L30.7148 6.38655C30.7886 6.56633 30.8747 6.74338 30.9799 6.91363V6.91363L34.6508 12.7987C34.8722 13.1528 35.1496 13.4538 35.4681 13.7017V13.7017L32.624 16.4243C32.5598 16.3725 32.501 16.3153 32.4313 16.2704V16.2704L21.5826 9.15134C21.0141 8.77816 20.287 8.74411 19.687 9.06145V9.06145L14.644 11.7296C14.5715 11.769 14.4923 11.7881 14.4116 11.7881V11.7881C14.3037 11.7881 14.1971 11.7527 14.1082 11.686V11.686ZM8.61692 20.8738C8.24518 20.6055 8.15498 20.0784 8.41738 19.6998V19.6998L9.72939 17.7999C9.8893 17.5683 10.1449 17.4403 10.4114 17.4403V17.4403C10.5658 17.4403 10.723 17.4839 10.8678 17.5724V17.5724C11.0646 17.695 11.1986 17.8884 11.2464 18.1172V18.1172C11.2901 18.3242 11.2532 18.5353 11.148 18.7165V18.7165L9.76766 20.7635C9.64329 20.9092 9.47656 21.01 9.28522 21.0441V21.0441C9.06245 21.0863 8.83832 21.0332 8.65382 20.9011V20.9011L8.25475 21.469L8.61692 20.8738ZM10.8405 23.1715C10.4565 22.8991 10.3608 22.3597 10.6246 21.9688V21.9688L10.9061 21.5494C10.9252 21.5248 10.9485 21.5044 10.9662 21.4785V21.4785C11.3721 20.8765 11.8546 20.1588 12.2619 19.55V19.55C12.2728 19.5336 12.2796 19.5159 12.2892 19.4996V19.4996L13.3907 17.8652C13.5575 17.6201 13.8294 17.488 14.1055 17.488V17.488C14.2668 17.488 14.428 17.5329 14.5715 17.6269V17.6269C14.767 17.7549 14.9009 17.9538 14.946 18.1853V18.1853C14.9911 18.4168 14.9446 18.6524 14.8134 18.8486V18.8486L14.4349 19.4097C14.4267 19.4206 14.4157 19.4301 14.4075 19.4424V19.4424L12.3329 22.4946C12.296 22.549 12.2714 22.6103 12.24 22.6675V22.6675L12.0487 22.9522C11.9174 23.1469 11.7193 23.2763 11.491 23.3186V23.3186C11.4391 23.3281 11.3872 23.3322 11.3352 23.3322V23.3322C11.1603 23.3322 10.9881 23.2777 10.8405 23.1715V23.1715ZM13.7707 24.547C13.5493 24.4231 13.3989 24.2256 13.3415 23.9832V23.9832C13.2978 23.8034 13.3128 23.6195 13.3798 23.452V23.452L15.5706 20.201C15.7073 20.0199 15.9027 19.9 16.1296 19.866V19.866C16.3674 19.8333 16.6052 19.8973 16.7938 20.0512V20.0512C17.1409 20.3358 17.2147 20.8493 16.9605 21.2225V21.2225L16.3387 22.1391C16.3236 22.1582 16.3045 22.1745 16.2908 22.1949V22.1949L15.2808 23.6631C15.2467 23.7122 15.2248 23.7694 15.1961 23.8225V23.8225L14.8886 24.2747C14.7219 24.5184 14.454 24.6519 14.1793 24.6519V24.6519C14.0413 24.6519 13.9005 24.6179 13.7707 24.547V24.547ZM16.7008 25.4555C16.515 25.3792 16.3783 25.2226 16.3209 25.0278V25.0278C16.2799 24.8862 16.2881 24.7364 16.34 24.6015V24.6015L17.4703 22.9372C17.5728 22.8173 17.7122 22.737 17.8707 22.7152V22.7152C17.9021 22.7098 17.9322 22.707 17.9636 22.707V22.707C18.1126 22.707 18.2534 22.7588 18.3709 22.8541V22.8541C18.3736 22.8555 18.3764 22.8582 18.3791 22.8609V22.8609C18.6415 23.0788 18.6948 23.4711 18.5007 23.7544V23.7544L17.4908 25.2212C17.365 25.4037 17.16 25.5059 16.9496 25.5059V25.5059C16.8662 25.5059 16.7815 25.4895 16.7008 25.4555V25.4555Z" fill="white"/>
</mask>
<g mask="url(#mask0)">
<path fill-rule="evenodd" clip-rule="evenodd" d="M-6 33.8992H48V-5.10083H-6V33.8992Z" fill="#003057"/>
</g>
</svg>